<svg t="1637204518168" class="icon" viewBox="0 0 1024 1024" version="1.1" xmlns="http://www.w3.org/2000/svg" p-id="42828" width="32" height="32"><path d="M473.6 153.6h-307.2C102.7584 153.6 51.2 199.424 51.2 256v512c0 56.576 51.5584 102.4 115.2 102.4h691.2c63.6416 0 115.2-45.824 115.2-102.4V363.008h-384L473.6 153.6z m79.872 256.5632H921.6v353.5872c0 28.2624-26.2144 51.2-58.5216 51.2H160.9216c-32.3072 0-58.5216-22.9376-58.5216-51.2V252.0064c0-28.2624 26.2144-51.2 58.5216-51.2h275.5584l116.992 209.408zM512 153.6l115.2 186.6752h153.6L665.6 153.6h-153.6z m307.2 186.6752L704 153.6h158.6176C923.4944 153.6 972.8 202.9056 972.8 263.7824v76.4928h-153.6z" p-id="42829" fill="#555555"></path></svg>